ModelForces
version=1
nRows=4
nColumns=157
inDegrees=no

This file contains the forces exerted on a model during a simulation.

A force is a generalized force, meaning that it can be either a force (N) or a torque (Nm).

Units are S.I. units (second, meters, Newtons, ...)
Angles are in degrees.

endheader
time	glut_med1_r	glut_med2_r	glut_med3_r	glut_min1_r	glut_min2_r	glut_min3_r	semimem_r	semiten_r	bifemlh_r	bifemsh_r	sar_r	add_long_r	add_brev_r	add_mag1_r	add_mag2_r	add_mag3_r	tfl_r	pect_r	grac_r	glut_max1_r	glut_max2_r	glut_max3_r	iliacus_r	psoas_r	quad_fem_r	gem_r	peri_r	rect_fem_r	vas_med_r	vas_int_r	vas_lat_r	med_gas_r	lat_gas_r	soleus_r	tib_post_r	flex_dig_r	flex_hal_r	tib_ant_r	per_brev_r	per_long_r	per_tert_r	ext_dig_r	ext_hal_r	glut_med1_l	glut_med2_l	glut_med3_l	glut_min1_l	glut_min2_l	glut_min3_l	semimem_l	semiten_l	bifemlh_l	bifemsh_l	sar_l	add_long_l	add_brev_l	add_mag1_l	add_mag2_l	add_mag3_l	tfl_l	pect_l	grac_l	glut_max1_l	glut_max2_l	glut_max3_l	iliacus_l	psoas_l	quad_fem_l	gem_l	peri_l	rect_fem_l	vas_med_l	vas_int_l	vas_lat_l	med_gas_l	lat_gas_l	soleus_l	tib_post_l	flex_dig_l	flex_hal_l	tib_ant_l	per_brev_l	per_long_l	per_tert_l	ext_dig_l	ext_hal_l	ercspn_r	ercspn_l	intobl_r	intobl_l	extobl_r	extobl_l	femur_lat_meniscii_r.femur_lat_r.force.X	femur_lat_meniscii_r.femur_lat_r.force.Y	femur_lat_meniscii_r.femur_lat_r.force.Z	femur_lat_meniscii_r.femur_lat_r.torque.X	femur_lat_meniscii_r.femur_lat_r.torque.Y	femur_lat_meniscii_r.femur_lat_r.torque.Z	femur_lat_meniscii_r.meniscus_lat_r.force.X	femur_lat_meniscii_r.meniscus_lat_r.force.Y	femur_lat_meniscii_r.meniscus_lat_r.force.Z	femur_lat_meniscii_r.meniscus_lat_r.torque.X	femur_lat_meniscii_r.meniscus_lat_r.torque.Y	femur_lat_meniscii_r.meniscus_lat_r.torque.Z	femur_med_meniscii_r.femur_med_r.force.X	femur_med_meniscii_r.femur_med_r.force.Y	femur_med_meniscii_r.femur_med_r.force.Z	femur_med_meniscii_r.femur_med_r.torque.X	femur_med_meniscii_r.femur_med_r.torque.Y	femur_med_meniscii_r.femur_med_r.torque.Z	femur_med_meniscii_r.meniscus_med_r.force.X	femur_med_meniscii_r.meniscus_med_r.force.Y	femur_med_meniscii_r.meniscus_med_r.force.Z	femur_med_meniscii_r.meniscus_med_r.torque.X	femur_med_meniscii_r.meniscus_med_r.torque.Y	femur_med_meniscii_r.meniscus_med_r.torque.Z	femur_med_tibia_r.tibia_upper_r.force.X	femur_med_tibia_r.tibia_upper_r.force.Y	femur_med_tibia_r.tibia_upper_r.force.Z	femur_med_tibia_r.tibia_upper_r.torque.X	femur_med_tibia_r.tibia_upper_r.torque.Y	femur_med_tibia_r.tibia_upper_r.torque.Z	femur_med_tibia_r.femur_med_r.force.X	femur_med_tibia_r.femur_med_r.force.Y	femur_med_tibia_r.femur_med_r.force.Z	femur_med_tibia_r.femur_med_r.torque.X	femur_med_tibia_r.femur_med_r.torque.Y	femur_med_tibia_r.femur_med_r.torque.Z	femur_lat_tibia_r.tibia_upper_r.force.X	femur_lat_tibia_r.tibia_upper_r.force.Y	femur_lat_tibia_r.tibia_upper_r.force.Z	femur_lat_tibia_r.tibia_upper_r.torque.X	femur_lat_tibia_r.tibia_upper_r.torque.Y	femur_lat_tibia_r.tibia_upper_r.torque.Z	femur_lat_tibia_r.femur_lat_r.force.X	femur_lat_tibia_r.femur_lat_r.force.Y	femur_lat_tibia_r.femur_lat_r.force.Z	femur_lat_tibia_r.femur_lat_r.torque.X	femur_lat_tibia_r.femur_lat_r.torque.Y	femur_lat_tibia_r.femur_lat_r.torque.Z	aACL_R	pACL_R	aPCL_R	pPCL_R	aMCL_R	mMCL_R	pMCL_R	aLCL_R	mLCL_R	pLCL_R	ground_prescribedForce_fx	ground_prescribedForce_fy	ground_prescribedForce_fz	ground_prescribedForce_px	ground_prescribedForce_py	ground_prescribedForce_pz
      0.72778190	      7.54820700	      5.66592978	      6.06490739	      2.65901434	      3.17903142	      3.19284998	      4.32783446	      3.90756565	      6.03215805	      6.67310100	      1.50467033	      5.61345802	      4.14118255	      2.91901407	      2.45380034	      3.98758766	      3.90477815	      2.23878044	      1.50356919	      3.65618790	      5.55617713	      4.14754842	     22.64792448	     12.96721701	      3.62678385	      2.85436854	      4.09034561	     11.62104529	      9.78497856	     10.34051617	     13.89427294	      0.00000000	      1.46607850	     10.93200652	     13.90078358	      2.67336872	      2.97990812	     14.08403858	      3.94252731	      8.19421778	     10.34427654	      8.62082372	      1.83650763	      7.54820700	      5.66592978	      6.06490739	      2.65901434	      3.17903142	      3.19284998	      8.74562516	      4.08337183	      7.68321260	      7.21623897	      1.51978789	      5.61345802	      4.14118255	      2.91901407	      2.45380034	      3.98758766	      4.09710198	      2.23878044	      1.55874887	      3.65618790	      5.55617713	      4.14754842	     22.64792448	     12.96721701	      3.62678385	      2.85436854	      4.09034561	     10.66765615	      6.59289340	      7.56258070	      8.13181631	     13.95493714	      6.47960047	     31.08931390	     42.36036798	      2.59657539	      2.84622296	      8.45216384	      4.33426895	     12.44735126	      2.00594096	      5.35618153	      1.70041916	     25.00733071	     25.00733071	      9.00044107	      9.00044107	     26.80500529	     26.80500529	     53.65863489	     58.97266169	     17.91314647	     -8.81152477	      1.30438059	     22.13026345	    -53.65863489	    -58.97266169	    -17.91314647	      2.02108502	     -1.57889561	     -0.88583221	     57.17639040	     42.28641170	     13.62960769	     -4.63881146	     -1.31144016	     23.48206474	    -57.17639040	    -42.28641170	    -13.62960769	     -0.53149963	      1.07943285	     -1.07272696	     -2.56382057	     -4.02289776	      0.52060301	     -0.09150746	      0.05159132	     -0.04990491	      2.56382057	      4.02289776	     -0.52060301	      0.29697395	     -0.04944831	      1.07832833	      0.00000000	      0.00000000	      0.00000000	      0.00000000	      0.00000000	      0.00000000	      0.00000000	      0.00000000	      0.00000000	      0.00000000	      0.00000000	      0.00000000	     53.97302487	     23.43271274	     24.54704252	      6.61009427	      0.00000000	      0.00000000	      0.00000000	      0.09742591	      0.00000000	      0.00000000	     95.26279000	    -55.00000000	      0.00000000	      0.03000000	     -0.03000000	      0.00000000
      0.72844094	      7.54818431	      5.66591413	      6.06489044	      2.65900731	      3.17902382	      3.19284039	      4.32686167	      3.90699812	      6.03187414	      6.67041026	      1.50340968	      5.61344234	      4.14117170	      2.91900607	      2.45379346	      3.98757526	      3.90471663	      2.23877448	      1.50318614	      3.65617781	      5.55616176	      4.14753674	     22.64789613	     12.96718514	      3.62677406	      2.85436396	      4.09032717	     11.62001900	      9.78207904	     10.33748262	     13.89148983	      0.00000000	      1.46533101	     10.92897557	     13.90063463	      2.67817429	      2.97482580	     14.08660419	      3.94425798	      8.19709498	     10.34684860	      8.60617612	      1.83886369	      7.54818431	      5.66591413	      6.06489044	      2.65900731	      3.17902382	      3.19284039	      8.74559204	      4.08335967	      7.68318508	      7.21621947	      1.51978389	      5.61344234	      4.14117170	      2.91900607	      2.45379346	      3.98757526	      4.09709431	      2.23877448	      1.55874470	      3.65617781	      5.55616176	      4.14753674	     22.64789613	     12.96718514	      3.62677406	      2.85436396	      4.09032717	     10.66761869	      6.59287478	      7.56255894	      8.13179303	     13.95485023	      6.47956003	     31.08917423	     42.36031353	      2.59605541	      2.84597795	      8.45213567	      4.33425202	     12.44730943	      2.00593601	      5.35642637	      1.70048649	     25.00726445	     25.00726445	      9.00041510	      9.00041510	     26.80498196	     26.80498196	     53.68707682	     58.99923771	     17.92219340	     -8.81589641	      1.30506078	     22.14202318	    -53.68707682	    -58.99923771	    -17.92219340	      2.02201899	     -1.57971242	     -0.88638512	     57.22595958	     42.32659406	     13.64227116	     -4.64307855	     -1.31260491	     23.50244411	    -57.22595958	    -42.32659406	    -13.64227116	     -0.53203765	      1.08039144	     -1.07364228	     -2.59515373	     -4.07289601	      0.52196843	     -0.09256438	      0.05223218	     -0.05050633	      2.59515373	      4.07289601	     -0.52196843	      0.29862521	     -0.05011814	      1.09150758	      0.00000000	      0.00000000	      0.00000000	      0.00000000	      0.00000000	      0.00000000	      0.00000000	      0.00000000	      0.00000000	      0.00000000	      0.00000000	      0.00000000	     53.96183452	     23.42145649	     24.53222625	      6.58242718	      0.00000000	      0.00000000	      0.00000000	      0.07708572	      0.00000000	      0.00000000	     95.26279000	    -55.00000000	      0.00000000	      0.03000000	     -0.03000000	      0.00000000
      0.72909998	      7.54816180	      5.66589863	      6.06487363	      2.65900034	      3.17901628	      3.19283089	      4.32634665	      3.90670622	      6.03192989	      6.66975206	      1.50308847	      5.61342680	      4.14116095	      2.91899814	      2.45378663	      3.98756297	      3.90480007	      2.23876858	      1.50313875	      3.65616781	      5.55614652	      4.14752515	     22.64786801	     12.96715353	      3.62676434	      2.85435942	      4.09030890	     11.61955033	      9.78050855	     10.33588691	     13.88994362	      0.00000000	      1.46495678	     10.92647807	     13.90043456	      2.68305332	      2.96976283	     14.08911647	      3.94598747	      8.19999409	     10.34922576	      8.59135581	      1.84120091	      7.54816180	      5.66589863	      6.06487363	      2.65900034	      3.17901628	      3.19283089	      8.74555921	      4.08334761	      7.68315778	      7.21620013	      1.51977992	      5.61342680	      4.14116095	      2.91899814	      2.45378663	      3.98756297	      4.09708672	      2.23876858	      1.55874056	      3.65616781	      5.55614652	      4.14752515	     22.64786801	     12.96715353	      3.62676434	      2.85435942	      4.09030890	     10.66758155	      6.59285633	      7.56253736	      8.13176994	     13.95476403	      6.47951993	     31.08903574	     42.36025954	      2.59553486	      2.84573288	      8.45210773	      4.33423524	     12.44726794	      2.00593111	      5.35667159	      1.70055389	     25.00719875	     25.00719875	      9.00038935	      9.00038935	     26.80495883	     26.80495883	     53.54906817	     58.87751434	     17.88510326	     -8.79764545	      1.30175273	     22.08490814	    -53.54906817	    -58.87751434	    -17.88510326	      2.01782437	     -1.57579337	     -0.88358056	     57.10993796	     42.24139940	     13.61675273	     -4.63454878	     -1.30993934	     23.45479213	    -57.10993796	    -42.24139940	    -13.61675273	     -0.53089865	      1.07817776	     -1.07145877	     -2.61293280	     -4.10143009	      0.52207973	     -0.09315823	      0.05259802	     -0.05084578	      2.61293280	      4.10143009	     -0.52207973	      0.29930178	     -0.05050769	      1.09898568	      0.00000000	      0.00000000	      0.00000000	      0.00000000	      0.00000000	      0.00000000	      0.00000000	      0.00000000	      0.00000000	      0.00000000	      0.00000000	      0.00000000	     53.99102678	     23.45351610	     24.56927037	      6.68216943	      0.00000000	      0.00000000	      0.00000000	      0.18167447	      0.00000000	      0.00000000	     95.26279000	    -55.00000000	      0.00000000	      0.03000000	     -0.03000000	      0.00000000
      0.72942950	      7.54815062	      5.66589092	      6.06486528	      2.65899687	      3.17901253	      3.19282617	      4.32624285	      3.90665018	      6.03207639	      6.66995727	      1.50306351	      5.61341908	      4.14115560	      2.91899420	      2.45378324	      3.98755687	      3.90489007	      2.23876564	      1.50317742	      3.65616285	      5.55613895	      4.14751939	     22.64785404	     12.96713783	      3.62675952	      2.85435716	      4.09029981	     11.61951422	      9.78017839	     10.33557247	     13.88964682	      0.90644327	      1.46493239	     10.92584401	     13.90030866	      2.68551617	      2.96724467	     14.09012883	      3.94692248	      8.20153595	     10.35034621	      8.58384845	      1.84233950	      7.54815062	      5.66589092	      6.06486528	      2.65899687	      3.17901253	      3.19282617	      8.74554290	      4.08334162	      7.68314422	      7.21619052	      1.51977795	      5.61341908	      4.14115560	      2.91899420	      2.45378324	      3.98755687	      4.09708294	      2.23876564	      1.55873851	      3.65616285	      5.55613895	      4.14751939	     22.64785404	     12.96713783	      3.62675952	      2.85435716	      4.09029981	     10.66756310	      6.59284716	      7.56252664	      8.13175847	     13.95472121	      6.47950001	     31.08896693	     42.36023272	      2.59527438	      2.84561033	      8.45209385	      4.33422691	     12.44724733	      2.00592867	      5.35679434	      1.70058762	     25.00716611	     25.00716611	      9.00037656	      9.00037656	     26.80494734	     26.80494734	     53.53836559	     58.86705078	     17.88199246	     -8.79610690	      1.30149349	     22.08048332	    -53.53836559	    -58.86705078	    -17.88199246	      2.01746256	     -1.57548217	     -0.88337987	     57.10613084	     42.23892513	     13.61576047	     -4.63419474	     -1.30985488	     23.45322996	    -57.10613084	    -42.23892513	    -13.61576047	     -0.53087698	      1.07811210	     -1.07138594	     -2.61950933	     -4.11195157	      0.52216414	     -0.09337773	      0.05273313	     -0.05097173	      2.61950933	      4.11195157	     -0.52216414	      0.29956839	     -0.05065107	      1.10175183	      0.00000000	      0.00000000	      0.00000000	      0.00000000	      0.00000000	      0.00000000	      0.00000000	      0.00000000	      0.00000000	      0.00000000	      0.00000000	      0.00000000	     53.99388059	     23.45672950	     24.57165839	      6.68741722	      0.00000000	      0.00000000	      0.00000000	      0.18902639	      0.00000000	      0.00000000	     95.26279000	    -55.00000000	      0.00000000	      0.03000000	     -0.03000000	      0.00000000
